<svg width="25" height="25" viewBox="0 0 25 25" fill="none" xmlns="http://www.w3.org/2000/svg">
<path d="M6.25 17.5C5.20833 17.5 4.32292 17.1354 3.59375 16.4062C2.86458 15.6771 2.5 14.7917 2.5 13.75H0V10C0 8.625 0.489583 7.44792 1.46875 6.46875C2.44792 5.48958 3.625 5 5 5H10V11.25H14.375L18.75 5.8125V2.5H15V0H18.75C19.4375 0 20.026 0.244792 20.5156 0.734375C21.0052 1.22396 21.25 1.8125 21.25 2.5V6.6875L15.625 13.75H10C10 14.7917 9.63542 15.6771 8.90625 16.4062C8.17708 17.1354 7.29167 17.5 6.25 17.5ZM6.25 15C6.60417 15 6.90104 14.8802 7.14062 14.6406C7.38021 14.401 7.5 14.1042 7.5 13.75H5C5 14.1042 5.11979 14.401 5.35938 14.6406C5.59896 14.8802 5.89583 15 6.25 15ZM3.75 3.75V1.25H10V3.75H3.75ZM21.25 17.5C20.2083 17.5 19.3229 17.1354 18.5938 16.4062C17.8646 15.6771 17.5 14.7917 17.5 13.75C17.5 12.7083 17.8646 11.8229 18.5938 11.0938C19.3229 10.3646 20.2083 10 21.25 10C22.2917 10 23.1771 10.3646 23.9062 11.0938C24.6354 11.8229 25 12.7083 25 13.75C25 14.7917 24.6354 15.6771 23.9062 16.4062C23.1771 17.1354 22.2917 17.5 21.25 17.5ZM21.25 15C21.6042 15 21.901 14.8802 22.1406 14.6406C22.3802 14.401 22.5 14.1042 22.5 13.75C22.5 13.3958 22.3802 13.099 22.1406 12.8594C21.901 12.6198 21.6042 12.5 21.25 12.5C20.8958 12.5 20.599 12.6198 20.3594 12.8594C20.1198 13.099 20 13.3958 20 13.75C20 14.1042 20.1198 14.401 20.3594 14.6406C20.599 14.8802 20.8958 15 21.25 15ZM13.75 25L6.25 21.25H11.25V18.75L18.75 22.5H13.75V25ZM2.5 11.25H7.5V7.5H5C4.3125 7.5 3.72396 7.74479 3.23438 8.23438C2.74479 8.72396 2.5 9.3125 2.5 10V11.25Z" fill="#00677E"/>
</svg>
