<svg width="17" height="18" viewBox="0 0 17 18" fill="none" xmlns="http://www.w3.org/2000/svg">
<path d="M4.47917 12.0833C4.4375 12.0278 4.57292 11.809 4.88542 11.4271C5.19792 11.0451 5.55556 10.6389 5.95833 10.2083C6.41667 9.69444 6.95139 9.125 7.5625 8.5C7.72917 8.25 7.95833 8.125 8.25 8.125C8.54167 8.125 8.78472 8.23611 8.97917 8.45833C9.14583 8.68056 9.20833 8.93403 9.16667 9.21875C9.125 9.50347 8.97222 9.70833 8.70833 9.83333C7.94444 10.2917 7.26389 10.6944 6.66667 11.0417C6.13889 11.3333 5.65278 11.5938 5.20833 11.8229C4.76389 12.0521 4.52083 12.1389 4.47917 12.0833ZM7.29167 17.9167C7.22222 17.9167 7.15278 17.9028 7.08333 17.875C7.01389 17.8472 6.95833 17.7986 6.91667 17.7292C6.86111 17.6458 6.80556 17.5312 6.75 17.3854C6.69444 17.2396 6.66667 17.0694 6.66667 16.875C6.66667 16.75 6.67361 16.6354 6.6875 16.5312C6.70139 16.4271 6.72222 16.3194 6.75 16.2083C6.375 16.1389 6.05903 15.9514 5.80208 15.6458C5.54514 15.3403 5.41667 14.9861 5.41667 14.5833C5.41667 14.5278 5.4375 14.3819 5.47917 14.1458C4.45139 13.7847 3.62153 13.2083 2.98958 12.4167C2.35764 11.625 1.95139 10.6042 1.77083 9.35417C1.70139 9.42361 1.625 9.47917 1.54167 9.52083C1.45833 9.5625 1.36111 9.58333 1.25 9.58333C1.04167 9.58333 0.78125 9.42708 0.46875 9.11458C0.15625 8.80208 0 8.125 0 7.08333C0 6.125 0.28125 5.26042 0.84375 4.48958C1.40625 3.71875 1.95833 3.33333 2.5 3.33333C2.68056 3.33333 2.79514 3.41319 2.84375 3.57292C2.89236 3.73264 2.91667 3.88889 2.91667 4.04167C3.44444 3.29167 4.10764 2.67361 4.90625 2.1875C5.70486 1.70139 6.58333 1.40278 7.54167 1.29167C7.625 0.888889 7.82639 0.572917 8.14583 0.34375C8.46528 0.114583 8.80556 0 9.16667 0V0.833333C9.22222 0.75 9.29167 0.680556 9.375 0.625C9.44444 0.569444 9.53125 0.520833 9.63542 0.479167C9.73958 0.4375 9.86111 0.416667 10 0.416667C10.1389 0.416667 10.2604 0.4375 10.3646 0.479167C10.4688 0.520833 10.5556 0.569444 10.625 0.625C10.7083 0.680556 10.7778 0.75 10.8333 0.833333C10.625 0.833333 10.4514 0.895833 10.3125 1.02083C10.1736 1.14583 10.0833 1.29861 10.0417 1.47917C10.7917 1.67361 11.4861 1.99306 12.125 2.4375C12.7639 2.88194 13.3056 3.41667 13.75 4.04167C13.75 3.88889 13.7743 3.73264 13.8229 3.57292C13.8715 3.41319 13.9861 3.33333 14.1667 3.33333C14.7083 3.33333 15.2604 3.71875 15.8229 4.48958C16.3854 5.26042 16.6667 6.125 16.6667 7.08333C16.6667 8.125 16.5104 8.80208 16.1979 9.11458C15.8854 9.42708 15.625 9.58333 15.4167 9.58333C15.3194 9.58333 15.2257 9.56597 15.1354 9.53125C15.0451 9.49653 14.9653 9.44444 14.8958 9.375C14.7014 10.7639 14.2257 11.8715 13.4688 12.6979C12.7118 13.5243 11.7083 14.0764 10.4583 14.3542C10.5 14.5486 10.5938 14.7049 10.7396 14.8229C10.8854 14.941 11.0556 15 11.25 15H11.7292C11.8264 15 11.9097 15.0278 11.9792 15.0833C12.0486 15.1389 12.0972 15.2083 12.125 15.2917C12.1944 15.5139 12.316 15.7222 12.4896 15.9167C12.6632 16.1111 12.8264 16.2708 12.9792 16.3958C13.0903 16.4931 13.1424 16.6076 13.1354 16.7396C13.1285 16.8715 13.0694 16.9722 12.9583 17.0417C12.8056 17.1528 12.6111 17.25 12.375 17.3333C12.1389 17.4167 11.8333 17.4722 11.4583 17.5C11.3889 17.5 11.3194 17.4861 11.25 17.4583C11.1806 17.4306 11.125 17.3819 11.0833 17.3125C11.0278 17.2292 10.9722 17.1146 10.9167 16.9688C10.8611 16.8229 10.8333 16.6528 10.8333 16.4583C10.8333 16.3333 10.8403 16.2188 10.8542 16.1146C10.8681 16.0104 10.8889 15.9028 10.9167 15.7917C10.5833 15.7222 10.3021 15.5694 10.0729 15.3333C9.84375 15.0972 9.69444 14.8194 9.625 14.5C9.41667 14.5278 9.20833 14.5486 9 14.5625C8.79167 14.5764 8.56944 14.5833 8.33333 14.5833C7.97222 14.5833 7.62153 14.566 7.28125 14.5312C6.94097 14.4965 6.61111 14.4444 6.29167 14.375C6.29167 14.375 6.27778 14.4444 6.25 14.5833C6.25 14.8194 6.32986 15.0174 6.48958 15.1771C6.64931 15.3368 6.84722 15.4167 7.08333 15.4167H7.5625C7.65972 15.4167 7.74306 15.4444 7.8125 15.5C7.88194 15.5556 7.93056 15.625 7.95833 15.7083C8.02778 15.9306 8.14931 16.1389 8.32292 16.3333C8.49653 16.5278 8.65972 16.6875 8.8125 16.8125C8.92361 16.9097 8.97569 17.0243 8.96875 17.1562C8.96181 17.2882 8.90278 17.3889 8.79167 17.4583C8.63889 17.5694 8.44444 17.6667 8.20833 17.75C7.97222 17.8333 7.66667 17.8889 7.29167 17.9167ZM13.9583 9.77083C14.0278 9.49306 14.0799 9.20139 14.1146 8.89583C14.1493 8.59028 14.1667 8.26389 14.1667 7.91667C14.1667 6.30556 13.5972 4.93056 12.4583 3.79167C11.3194 2.65278 9.94444 2.08333 8.33333 2.08333C6.72222 2.08333 5.34722 2.65278 4.20833 3.79167C3.06944 4.93056 2.5 6.30556 2.5 7.91667C2.5 8.25 2.51736 8.56944 2.55208 8.875C2.58681 9.18056 2.63889 9.47222 2.70833 9.75C2.77778 9.47222 2.87153 9.19792 2.98958 8.92708C3.10764 8.65625 3.24306 8.40278 3.39583 8.16667C3.3125 7.97222 3.24653 7.76736 3.19792 7.55208C3.14931 7.33681 3.125 7.11111 3.125 6.875C3.125 6 3.42708 5.26042 4.03125 4.65625C4.63542 4.05208 5.375 3.75 6.25 3.75C6.65278 3.75 7.03125 3.82292 7.38542 3.96875C7.73958 4.11458 8.05556 4.3125 8.33333 4.5625C8.61111 4.3125 8.92708 4.11458 9.28125 3.96875C9.63542 3.82292 10.0139 3.75 10.4167 3.75C11.2917 3.75 12.0312 4.05208 12.6354 4.65625C13.2396 5.26042 13.5417 6 13.5417 6.875C13.5417 7.11111 13.5174 7.33681 13.4688 7.55208C13.4201 7.76736 13.3472 7.97222 13.25 8.16667C13.4028 8.40278 13.5417 8.65625 13.6667 8.92708C13.7917 9.19792 13.8889 9.47917 13.9583 9.77083ZM8.33333 13.75C9.54167 13.75 10.559 13.5625 11.3854 13.1875C12.2118 12.8125 12.8542 12.25 13.3125 11.5C13.3125 11.4583 13.316 11.4167 13.3229 11.375C13.3299 11.3333 13.3333 11.2917 13.3333 11.25C13.3333 10.8333 13.2847 10.4306 13.1875 10.0417C13.0903 9.65278 12.9444 9.28472 12.75 8.9375C12.4583 9.25694 12.1146 9.51389 11.7188 9.70833C11.3229 9.90278 10.8889 10 10.4167 10C10.3056 10 10.1944 9.99306 10.0833 9.97917C9.97222 9.96528 9.86111 9.94444 9.75 9.91667C9.81944 9.81944 9.87153 9.71875 9.90625 9.61458C9.94097 9.51042 9.96528 9.40278 9.97917 9.29167C9.99306 9.26389 10 9.23611 10 9.20833C10 9.18056 10 9.15278 10 9.125C10.0694 9.13889 10.1389 9.14931 10.2083 9.15625C10.2778 9.16319 10.3472 9.16667 10.4167 9.16667C11.0556 9.16667 11.5972 8.94444 12.0417 8.5C12.4861 8.05556 12.7083 7.51389 12.7083 6.875C12.7083 6.23611 12.4861 5.69444 12.0417 5.25C11.5972 4.80556 11.0556 4.58333 10.4167 4.58333C10.1389 4.58333 9.86806 4.63542 9.60417 4.73958C9.34028 4.84375 9.10417 4.99306 8.89583 5.1875L8.33333 5.6875L7.77083 5.1875C7.5625 4.99306 7.32639 4.84375 7.0625 4.73958C6.79861 4.63542 6.52778 4.58333 6.25 4.58333C5.61111 4.58333 5.06944 4.80556 4.625 5.25C4.18056 5.69444 3.95833 6.23611 3.95833 6.875C3.95833 7.44444 4.13542 7.93403 4.48958 8.34375C4.84375 8.75347 5.28472 9.01389 5.8125 9.125L5.1875 9.8125C4.9375 9.71528 4.70486 9.59375 4.48958 9.44792C4.27431 9.30208 4.08333 9.13194 3.91667 8.9375C3.72222 9.28472 3.57639 9.65278 3.47917 10.0417C3.38194 10.4306 3.33333 10.8333 3.33333 11.25V11.4583C3.80556 12.2083 4.45833 12.7778 5.29167 13.1667C6.125 13.5556 7.13889 13.75 8.33333 13.75ZM10.4167 8.33333C10.0694 8.33333 9.77431 8.19097 9.53125 7.90625C9.28819 7.62153 9.16667 7.27778 9.16667 6.875C9.16667 6.47222 9.28819 6.12847 9.53125 5.84375C9.77431 5.55903 10.0694 5.41667 10.4167 5.41667C10.7639 5.41667 11.059 5.55903 11.3021 5.84375C11.5451 6.12847 11.6667 6.47222 11.6667 6.875C11.6667 7.27778 11.5451 7.62153 11.3021 7.90625C11.059 8.19097 10.7639 8.33333 10.4167 8.33333ZM10.7292 6.45833C10.8264 6.45833 10.9028 6.42708 10.9583 6.36458C11.0139 6.30208 11.0417 6.22917 11.0417 6.14583C11.0417 6.0625 11.0104 5.98958 10.9479 5.92708C10.8854 5.86458 10.8125 5.83333 10.7292 5.83333C10.6319 5.83333 10.5556 5.86458 10.5 5.92708C10.4444 5.98958 10.4167 6.0625 10.4167 6.14583C10.4167 6.24306 10.4479 6.31944 10.5104 6.375C10.5729 6.43056 10.6458 6.45833 10.7292 6.45833ZM6.25 8.33333C5.90278 8.33333 5.60764 8.19097 5.36458 7.90625C5.12153 7.62153 5 7.27778 5 6.875C5 6.47222 5.12153 6.12847 5.36458 5.84375C5.60764 5.55903 5.90278 5.41667 6.25 5.41667C6.59722 5.41667 6.89236 5.55903 7.13542 5.84375C7.37847 6.12847 7.5 6.47222 7.5 6.875C7.5 7.27778 7.37847 7.62153 7.13542 7.90625C6.89236 8.19097 6.59722 8.33333 6.25 8.33333ZM6.5625 6.45833C6.65972 6.45833 6.73611 6.42708 6.79167 6.36458C6.84722 6.30208 6.875 6.22917 6.875 6.14583C6.875 6.0625 6.84375 5.98958 6.78125 5.92708C6.71875 5.86458 6.64583 5.83333 6.5625 5.83333C6.46528 5.83333 6.38889 5.86458 6.33333 5.92708C6.27778 5.98958 6.25 6.0625 6.25 6.14583C6.25 6.24306 6.28125 6.31944 6.34375 6.375C6.40625 6.43056 6.47917 6.45833 6.5625 6.45833Z" fill="#5F5E5E"/>
</svg>
